<svg xmlns="http://www.w3.org/2000/svg" viewBox="0 0 1600 900" role="img">
  <rect width="1600" height="900" fill="#0b1d32"/><g stroke="#fff" opacity=".08"><path d="M0 180h1600M0 360h1600M0 540h1600M0 720h1600"/><path d="M320 0v900M640 0v900M960 0v900M1280 0v900"/></g>
  <text x="90" y="110" fill="#77c8bf" font-family="Arial" font-size="26" font-weight="700" letter-spacing="4">RECOVERY-AWARE CONTROL LOOP</text>
  <g font-family="Arial"><g transform="translate(90 250)"><rect width="300" height="220" fill="#f5f2e9"/><text x="34" y="65" fill="#13243a" font-size="24" font-weight="700">Task Policy</text><text x="34" y="110" fill="#506071" font-size="18">nominal action</text><text x="34" y="145" fill="#506071" font-size="18">from demonstrations</text></g>
  <g transform="translate(485 250)"><rect width="300" height="220" fill="#173751"/><text x="34" y="65" fill="#f5f2e9" font-size="24" font-weight="700">Safety RMP</text><text x="34" y="110" fill="#aebdc8" font-size="18">proximity response</text><text x="34" y="145" fill="#aebdc8" font-size="18">alters trajectory</text></g>
  <g transform="translate(880 250)"><rect width="300" height="220" fill="#9a512c"/><text x="34" y="65" fill="#fff3e9" font-size="24" font-weight="700">OOD State</text><text x="34" y="110" fill="#f4c4a7" font-size="18">safe but unfamiliar</text><text x="34" y="145" fill="#f4c4a7" font-size="18">to the task policy</text></g>
  <g transform="translate(485 610)"><rect width="695" height="150" fill="#147d78"/><text x="35" y="62" fill="#f3fffd" font-size="27" font-weight="700">Recovery-Aware Policy Bridge</text><text x="35" y="105" fill="#caefea" font-size="18">reconnect intervention states to task-relevant execution</text></g>
  <g fill="none" stroke="#78c7be" stroke-width="8"><path d="M390 360h75"/><path d="M785 360h75"/><path d="M1030 485v100"/><path d="M485 685H240V500"/></g><g fill="#78c7be"><path d="m465 360-20-13v26z"/><path d="m860 360-20-13v26z"/><path d="m1030 585-13-20h26z"/><path d="m240 500-13 20h26z"/></g></g>
  <text x="1260" y="690" fill="#77c8bf" font-family="Georgia" font-size="72">91.3%</text><text x="1265" y="730" fill="#9dabb6" font-family="Arial" font-size="17">146 / 160 trials</text>
</svg>
